<svg version="1.1" xmlns="http://www.w3.org/2000/svg" xmlns:xlink="http://www.w3.org/1999/xlink" width="204" height="182.10028" viewBox="0,0,204,182.10028"><defs><radialGradient cx="238.9375" cy="139.3125" r="78" gradientUnits="userSpaceOnUse" id="color-1"><stop offset="0" stop-color="#616161"/><stop offset="1" stop-color="#b6b6b6"/></radialGradient></defs><g transform="translate(-142.4375,-113.10417)"><g data-paper-data="{&quot;isPaintingLayer&quot;:true}" fill-rule="nonzero" stroke-linejoin="miter" stroke-miterlimit="10" stroke-dasharray="" stroke-dashoffset="0" style="mix-blend-mode: normal"><path d="M265.3125,133.9375c0,9.29679 -10.96902,16.83333 -24.5,16.83333c-13.53098,0 -24.5,-7.53654 -24.5,-16.83333c0,-9.29679 10.96902,-16.83333 24.5,-16.83333c13.53098,0 24.5,7.53654 24.5,16.83333z" fill="none" stroke="#999999" stroke-width="8" stroke-linecap="butt"/><path d="M243.4246,176.92055l7.0258,111.78389" data-paper-data="{&quot;index&quot;:null}" fill="none" stroke="#000000" stroke-width="13" stroke-linecap="round"/><path d="M283.9375,149.3125l56,97" data-paper-data="{&quot;index&quot;:null}" fill="none" stroke="#000000" stroke-width="13" stroke-linecap="round"/><path d="M204.9375,141.3125l-56,97" fill="none" stroke="#000000" stroke-width="13" stroke-linecap="round"/><path d="M318.9375,155.3125c0,13.25483 -34.92179,24 -78,24c-43.07821,0 -78,-10.74517 -78,-24c0,-13.25483 34.92179,-24 78,-24c43.07821,0 78,10.74517 78,24z" fill="url(#color-1)" stroke="none" stroke-width="0" stroke-linecap="butt"/><path d="M162.97917,153.4375l26,5.33333l23.66667,2.33333l26.66667,1.66667l30,-1l27.66667,-4l21.33333,-3.66667" fill="none" stroke="#000000" stroke-width="0.5" stroke-linecap="round"/></g></g></svg>