<svg version="1.1" xmlns="http://www.w3.org/2000/svg" xmlns:xlink="http://www.w3.org/1999/xlink" width="98.75" height="45" viewBox="0,0,98.75,45"><defs><radialGradient cx="240" cy="180" r="49.375" gradientUnits="userSpaceOnUse" id="color-1"><stop offset="0" stop-color="#f0ff00"/><stop offset="1" stop-color="#ff5400"/></radialGradient><radialGradient cx="238.82692" cy="166.43663" r="16.63646" gradientUnits="userSpaceOnUse" id="color-2"><stop offset="0" stop-color="#616161"/><stop offset="1" stop-color="#b6b6b6"/></radialGradient></defs><g transform="translate(-190.625,-157.5)"><g data-paper-data="{&quot;isPaintingLayer&quot;:true}" fill-rule="nonzero" stroke-linejoin="miter" stroke-miterlimit="10" stroke-dasharray="" stroke-dashoffset="0" style="mix-blend-mode: normal"><path d="M190.625,202.5v-45h98.75v45z" fill="url(#color-1)" stroke="none" stroke-width="0" stroke-linecap="butt"/><g><path d="M244.45239,165.29021c0,1.98289 -2.33956,3.59035 -5.22555,3.59035c-2.886,0 -5.22555,-1.60745 -5.22555,-3.59035c0,-1.98289 2.33956,-3.59035 5.22555,-3.59035c2.886,0 5.22555,1.60745 5.22555,3.59035z" fill="none" stroke="#999999" stroke-width="4" stroke-linecap="butt"/><path d="M239.78396,174.45798l1.49852,23.84216" data-paper-data="{&quot;index&quot;:null}" fill="none" stroke="#000000" stroke-width="2" stroke-linecap="round"/><path d="M248.42487,168.56951l11.94413,20.68893" data-paper-data="{&quot;index&quot;:null}" fill="none" stroke="#000000" stroke-width="2" stroke-linecap="round"/><path d="M231.57513,166.86321l-11.94413,20.68893" fill="none" stroke="#000000" stroke-width="2" stroke-linecap="round"/><path d="M255.88995,169.84924c0,2.8271 -7.4484,5.11891 -16.63646,5.11891c-9.18806,0 -16.63646,-2.29182 -16.63646,-5.11891c0,-2.8271 7.4484,-5.11891 16.63646,-5.11891c9.18806,0 16.63646,2.29182 16.63646,5.11891z" fill="url(#color-2)" stroke="none" stroke-width="0" stroke-linecap="butt"/><path d="M255.75665,169.59152l-4.55014,0.78206l-5.90097,0.85315l-6.39864,0.21329l-5.68768,-0.35548l-5.04782,-0.49767l-5.54549,-1.13754" fill="none" stroke="#000000" stroke-width="0.5" stroke-linecap="round"/></g></g></g></svg>