<svg version="1.1" xmlns="http://www.w3.org/2000/svg" xmlns:xlink="http://www.w3.org/1999/xlink" width="530.4375" height="590.94053" viewBox="0,0,530.4375,590.94053"><g transform="translate(25.21875,115.47026)"><g data-paper-data="{&quot;isPaintingLayer&quot;:true}" fill-rule="nonzero" stroke="none" stroke-width="0" stroke-linecap="butt" stroke-linejoin="miter" stroke-miterlimit="10" stroke-dasharray="" stroke-dashoffset="0" style="mix-blend-mode: normal"><path d="M165.13096,475.47026v-397.82812h114.92812v397.82812z" fill="#906900"/><path d="M284.20313,85.65396c0,54.9286 -69.26645,99.45703 -154.71094,99.45703c-85.44449,0 -154.71094,-44.52843 -154.71094,-99.45703c0,-54.9286 69.26645,-99.45703 154.71094,-99.45703c85.44449,0 154.71094,44.52843 154.71094,99.45703z" fill="#0ed100"/><path d="M354.92813,-16.01323c0,54.92859 -69.26645,99.45703 -154.71094,99.45703c-85.44449,0 -154.71094,-44.52844 -154.71094,-99.45703c0,-54.92859 69.26645,-99.45703 154.71094,-99.45703c85.44449,0 154.71094,44.52844 154.71094,99.45703z" fill="#61f256"/><path d="M505.21875,94.49458c0,54.92859 -69.26645,99.45703 -154.71094,99.45703c-85.44449,0 -154.71094,-44.52844 -154.71094,-99.45703c0,-54.92859 69.26645,-99.45703 154.71094,-99.45703c85.44449,0 154.71094,44.52844 154.71094,99.45703z" fill="#5be251"/></g></g></svg>