<svg version="1.1" xmlns="http://www.w3.org/2000/svg" xmlns:xlink="http://www.w3.org/1999/xlink" width="248.47563" height="270.72671" viewBox="0,0,248.47563,270.72671"><g transform="translate(-112.14378,-49.5)"><g data-paper-data="{&quot;isPaintingLayer&quot;:true}" fill-rule="nonzero" stroke="none" stroke-width="0" stroke-linecap="butt" stroke-linejoin="miter" stroke-miterlimit="10" stroke-dasharray="" stroke-dashoffset="0" style="mix-blend-mode: normal"><path d="M146.04312,300.97798v-134.95595h211.27586v134.95595z" fill="#565656"/><path d="M345.84094,179.01682l-170.08649,-4.00765l0.4617,-13.77406l170.08649,4.00765z" fill="#000000"/><g><path d="M177.14378,308.72671c0,6.35127 -14.55075,11.5 -32.5,11.5c-17.94925,0 -32.5,-5.14873 -32.5,-11.5c0,-6.35127 14.55075,-11.5 32.5,-11.5c17.94925,0 32.5,5.14873 32.5,11.5z" fill="#969696"/><path d="M112.14378,308.22671v-206h65v206z" fill="#969696"/><path d="M177.14378,103.72671c0,6.35128 -14.55075,11.5 -32.5,11.5c-17.94925,0 -32.5,-5.14872 -32.5,-11.5c0,-6.35128 14.55075,-11.5 32.5,-11.5c17.94925,0 32.5,5.14872 32.5,11.5z" fill="#7c7c7c"/></g><g><path d="M310.68105,168.19518c0,3.48206 -14.55075,6.30482 -32.5,6.30482c-17.94925,0 -32.5,-2.82277 -32.5,-6.30482c0,-3.48206 14.55075,-6.30482 32.5,-6.30482c17.94925,0 32.5,2.82277 32.5,6.30482z" fill="#969696"/><path d="M245.68105,167.92105v-112.9386h65v112.9386z" fill="#969696"/><path d="M310.68105,55.80482c0,3.48206 -14.55075,6.30482 -32.5,6.30482c-17.94925,0 -32.5,-2.82277 -32.5,-6.30482c0,-3.48206 14.55075,-6.30482 32.5,-6.30482c17.94925,0 32.5,2.82277 32.5,6.30482z" fill="#7c7c7c"/></g><path d="M228.46876,300.90625v-57h37v57z" fill="#715907"/><path d="M343.7009,245.90858v-83.48758h13.7795v83.48758z" fill="#000000"/><path d="M360.35738,307.62241l-96.5253,-4.00765l0.26202,-13.77406l96.5253,4.00765z" fill="#000000"/><path d="M229.30197,303.70627l-52.8736,-4.00765l0.14353,-13.77406l52.87361,4.00764z" fill="#000000"/></g></g></svg>