<svg version="1.1" xmlns="http://www.w3.org/2000/svg" xmlns:xlink="http://www.w3.org/1999/xlink" width="164.09527" height="72.88297" viewBox="0,0,164.09527,72.88297"><g transform="translate(-157.90473,-143.11703)"><g data-paper-data="{&quot;isPaintingLayer&quot;:true}" fill-rule="nonzero" stroke-linejoin="miter" stroke-miterlimit="10" stroke-dasharray="" stroke-dashoffset="0" style="mix-blend-mode: normal"><path d="M158,216v-72h164v72z" fill="#0015ff" stroke="none" stroke-width="0" stroke-linecap="butt"/><g stroke="#000000" stroke-width="0.5" stroke-linecap="butt"><path d="M297.58481,190.65665c0,0 -19.45291,10.80703 -43.38289,10.68888c-23.92998,-0.11814 -43.27524,-11.11671 -43.27524,-11.11671c0,0 19.45291,-10.80703 43.38289,-10.68888c23.92998,0.11814 43.27524,11.11672 43.27524,11.11672z" fill="#cbcbcb"/><path d="M321.56127,214.1421l-24.89731,-24.10869l22.18694,-24.6244z" fill="#cbcbcb"/><path d="M219.9875,187.8625c0,-1.10457 0.89543,-2 2,-2c1.10457,0 2,0.89543 2,2c0,1.10457 -0.89543,2 -2,2c-1.10457,0 -2,-0.89543 -2,-2z" fill="#000000"/></g><path d="M158.15473,143.36703l53.19692,46.49164l5.26553,1.9304" fill="none" stroke="#000000" stroke-width="0.5" stroke-linecap="round"/></g></g></svg>