<svg version="1.1" xmlns="http://www.w3.org/2000/svg" xmlns:xlink="http://www.w3.org/1999/xlink" width="271" height="104.33333" viewBox="0,0,271,104.33333"><defs><radialGradient cx="155.16667" cy="190.8125" r="29.83333" gradientUnits="userSpaceOnUse" id="color-1"><stop offset="0" stop-color="#404040"/><stop offset="1" stop-color="#818181"/></radialGradient><radialGradient cx="148.83333" cy="170.8125" r="26.16667" gradientUnits="userSpaceOnUse" id="color-2"><stop offset="0" stop-color="#404040"/><stop offset="1" stop-color="#818181"/></radialGradient><radialGradient cx="182.5" cy="125.14583" r="26.83333" gradientUnits="userSpaceOnUse" id="color-3"><stop offset="0" stop-color="#404040"/><stop offset="1" stop-color="#818181"/></radialGradient><radialGradient cx="190.16667" cy="150.47917" r="29.69336" gradientUnits="userSpaceOnUse" id="color-4"><stop offset="0" stop-color="#404040"/><stop offset="1" stop-color="#818181"/></radialGradient><radialGradient cx="124.16667" cy="151.8125" r="16.16667" gradientUnits="userSpaceOnUse" id="color-5"><stop offset="0" stop-color="#404040"/><stop offset="1" stop-color="#818181"/></radialGradient><radialGradient cx="114.16667" cy="159.47917" r="17.5" gradientUnits="userSpaceOnUse" id="color-6"><stop offset="0" stop-color="#404040"/><stop offset="1" stop-color="#818181"/></radialGradient><radialGradient cx="123.5" cy="166.47917" r="11.5" gradientUnits="userSpaceOnUse" id="color-7"><stop offset="0" stop-color="#404040"/><stop offset="1" stop-color="#818181"/></radialGradient><radialGradient cx="136.16667" cy="176.8125" r="14.5" gradientUnits="userSpaceOnUse" id="color-8"><stop offset="0" stop-color="#404040"/><stop offset="1" stop-color="#818181"/></radialGradient><radialGradient cx="118.5" cy="176.8125" r="21.83333" gradientUnits="userSpaceOnUse" id="color-9"><stop offset="0" stop-color="#404040"/><stop offset="1" stop-color="#818181"/></radialGradient><radialGradient cx="109.5" cy="211.8125" r="10" gradientUnits="userSpaceOnUse" id="color-10"><stop offset="0" stop-color="#404040"/><stop offset="1" stop-color="#818181"/></radialGradient><radialGradient cx="131.5" cy="203.47917" r="20.16667" gradientUnits="userSpaceOnUse" id="color-11"><stop offset="0" stop-color="#404040"/><stop offset="1" stop-color="#818181"/></radialGradient><radialGradient cx="150.83333" cy="210.47917" r="16" gradientUnits="userSpaceOnUse" id="color-12"><stop offset="0" stop-color="#404040"/><stop offset="1" stop-color="#818181"/></radialGradient><radialGradient cx="198.16667" cy="214.14583" r="37.5" gradientUnits="userSpaceOnUse" id="color-13"><stop offset="0" stop-color="#404040"/><stop offset="1" stop-color="#818181"/></radialGradient><radialGradient cx="236.5" cy="208.47917" r="40.16667" gradientUnits="userSpaceOnUse" id="color-14"><stop offset="0" stop-color="#404040"/><stop offset="1" stop-color="#818181"/></radialGradient><radialGradient cx="199.83333" cy="194.8125" r="18.5" gradientUnits="userSpaceOnUse" id="color-15"><stop offset="0" stop-color="#404040"/><stop offset="1" stop-color="#818181"/></radialGradient><radialGradient cx="206.5" cy="168.14583" r="50.66667" gradientUnits="userSpaceOnUse" id="color-16"><stop offset="0" stop-color="#404040"/><stop offset="1" stop-color="#818181"/></radialGradient><radialGradient cx="201.83333" cy="145.14583" r="52.83333" gradientUnits="userSpaceOnUse" id="color-17"><stop offset="0" stop-color="#404040"/><stop offset="1" stop-color="#818181"/></radialGradient><radialGradient cx="221.5" cy="148.8125" r="21.33333" gradientUnits="userSpaceOnUse" id="color-18"><stop offset="0" stop-color="#404040"/><stop offset="1" stop-color="#818181"/></radialGradient><radialGradient cx="250.16667" cy="161.8125" r="24.83333" gradientUnits="userSpaceOnUse" id="color-19"><stop offset="0" stop-color="#404040"/><stop offset="1" stop-color="#818181"/></radialGradient><radialGradient cx="259.83333" cy="204.14583" r="46.5" gradientUnits="userSpaceOnUse" id="color-20"><stop offset="0" stop-color="#404040"/><stop offset="1" stop-color="#818181"/></radialGradient><radialGradient cx="259.5" cy="163.14583" r="37.16667" gradientUnits="userSpaceOnUse" id="color-21"><stop offset="0" stop-color="#404040"/><stop offset="1" stop-color="#818181"/></radialGradient><radialGradient cx="358.5" cy="142.14583" r="11.5" gradientUnits="userSpaceOnUse" id="color-22"><stop offset="0" stop-color="#404040"/><stop offset="1" stop-color="#818181"/></radialGradient><radialGradient cx="314.5" cy="206.8125" r="41.16667" gradientUnits="userSpaceOnUse" id="color-23"><stop offset="0" stop-color="#404040"/><stop offset="1" stop-color="#818181"/></radialGradient><radialGradient cx="364.5" cy="146.8125" r="19.83333" gradientUnits="userSpaceOnUse" id="color-24"><stop offset="0" stop-color="#404040"/><stop offset="1" stop-color="#818181"/></radialGradient><radialGradient cx="338.83333" cy="145.8125" r="11.5" gradientUnits="userSpaceOnUse" id="color-25"><stop offset="0" stop-color="#404040"/><stop offset="1" stop-color="#818181"/></radialGradient><radialGradient cx="345.5" cy="176.47917" r="19" gradientUnits="userSpaceOnUse" id="color-26"><stop offset="0" stop-color="#404040"/><stop offset="1" stop-color="#818181"/></radialGradient><radialGradient cx="350.16667" cy="160.8125" r="11.16667" gradientUnits="userSpaceOnUse" id="color-27"><stop offset="0" stop-color="#404040"/><stop offset="1" stop-color="#818181"/></radialGradient><radialGradient cx="335.83333" cy="156.47917" r="4.16667" gradientUnits="userSpaceOnUse" id="color-28"><stop offset="0" stop-color="#404040"/><stop offset="1" stop-color="#818181"/></radialGradient><radialGradient cx="362.83333" cy="172.47917" r="20.66667" gradientUnits="userSpaceOnUse" id="color-29"><stop offset="0" stop-color="#404040"/><stop offset="1" stop-color="#818181"/></radialGradient><radialGradient cx="340.5" cy="211.8125" r="23" gradientUnits="userSpaceOnUse" id="color-30"><stop offset="0" stop-color="#404040"/><stop offset="1" stop-color="#818181"/></radialGradient><radialGradient cx="344.16667" cy="196.8125" r="17.83333" gradientUnits="userSpaceOnUse" id="color-31"><stop offset="0" stop-color="#404040"/><stop offset="1" stop-color="#818181"/></radialGradient></defs><g transform="translate(-105.83333,-118.14583)"><g data-paper-data="{&quot;isPaintingLayer&quot;:true}" fill-rule="nonzero" stroke-linecap="butt" stroke-linejoin="miter" stroke-miterlimit="10" stroke-dasharray="" stroke-dashoffset="0" style="mix-blend-mode: normal"><path d="M119.5,209.5v-59h241v59z" fill="#000202" stroke="#000000" stroke-width="10"/><path d="M143.5,158.14583c0,3.6819 -6.04416,6.66667 -13.5,6.66667c-7.45584,0 -13.5,-2.98477 -13.5,-6.66667c0,-3.6819 6.04416,-6.66667 13.5,-6.66667c7.45584,0 13.5,2.98477 13.5,6.66667z" fill="#404040" stroke="#000000" stroke-width="0"/><path d="M201.83333,188.47917c0,13.99121 -13.35684,25.33333 -29.83333,25.33333c-16.4765,0 -29.83333,-11.34212 -29.83333,-25.33333c0,-13.99121 13.35684,-25.33333 29.83333,-25.33333c16.4765,0 29.83333,11.34212 29.83333,25.33333z" fill="url(#color-1)" stroke="none" stroke-width="0"/><path d="M180.83333,159.97917c0,14.08326 -11.71522,25.5 -26.16667,25.5c-14.45145,0 -26.16667,-11.41674 -26.16667,-25.5c0,-14.08326 11.71522,-25.5 26.16667,-25.5c14.45145,0 26.16667,11.41674 26.16667,25.5z" fill="url(#color-2)" stroke="none" stroke-width="0"/><path d="M173.5,144.97917c0,14.81964 4.32791,26.83333 9.66667,26.83333c5.33875,0 9.66667,-12.01369 9.66667,-26.83333c0,-14.81964 -4.32791,-26.83333 -9.66667,-26.83333c-5.33875,0 -9.66667,12.01369 -9.66667,26.83333z" fill="url(#color-3)" stroke="none" stroke-width="0"/><path d="M191.43411,162.72954c16.20178,8.14375 31.38013,10.67865 33.9018,5.66186c2.52167,-5.01679 -8.56825,-15.68553 -24.77003,-23.82928c-16.20178,-8.14375 -31.38013,-10.67865 -33.9018,-5.66186c-2.52167,5.01679 8.56825,15.68553 24.77003,23.82928z" fill="url(#color-4)" stroke="none" stroke-width="0"/><path d="M138.16667,148.64583c0,8.9286 -7.23806,16.16667 -16.16667,16.16667c-8.9286,0 -16.16667,-7.23806 -16.16667,-16.16667c0,-8.9286 7.23806,-16.16667 16.16667,-16.16667c8.9286,0 16.16667,7.23806 16.16667,16.16667z" fill="url(#color-5)" stroke="none" stroke-width="0"/><path d="M120.5,165.97917c0,-9.66498 -1.567,-17.5 -3.5,-17.5c-1.933,0 -3.5,7.83502 -3.5,17.5c0,9.66498 1.567,17.5 3.5,17.5c1.933,0 3.5,-7.83502 3.5,-17.5z" fill="url(#color-6)" stroke="none" stroke-width="0"/><path d="M116.16667,169.14583c0,4.23418 5.14873,7.66667 11.5,7.66667c6.35127,0 11.5,-3.43248 11.5,-7.66667c0,-4.23418 -5.14873,-7.66667 -11.5,-7.66667c-6.35127,0 -11.5,3.43248 -11.5,7.66667z" fill="url(#color-7)" stroke="none" stroke-width="0"/><path d="M116.5,181.8125c0,-5.70694 6.49187,-10.33333 14.5,-10.33333c8.00813,0 14.5,4.62639 14.5,10.33333c0,5.70694 -6.49187,10.33333 -14.5,10.33333c-8.00813,0 -14.5,-4.62639 -14.5,-10.33333z" fill="url(#color-8)" stroke="none" stroke-width="0"/><path d="M124.83333,191.3125c0,-12.05822 -2.53705,-21.83333 -5.66667,-21.83333c-3.12961,0 -5.66667,9.77512 -5.66667,21.83333c0,12.05822 2.53705,21.83333 5.66667,21.83333c3.12961,0 5.66667,-9.77512 5.66667,-21.83333z" fill="url(#color-9)" stroke="none" stroke-width="0"/><path d="M108.5,211.8125c0,4.60237 4.47715,8.33333 10,8.33333c5.52285,0 10,-3.73096 10,-8.33333c0,-4.60237 -4.47715,-8.33333 -10,-8.33333c-5.52285,0 -10,3.73096 -10,8.33333z" fill="url(#color-10)" stroke="none" stroke-width="0"/><path d="M149.83333,202.3125c0,11.13774 -7.53654,20.16667 -16.83333,20.16667c-9.29679,0 -16.83333,-9.02892 -16.83333,-20.16667c0,-11.13774 7.53654,-20.16667 16.83333,-20.16667c9.29679,0 16.83333,9.02892 16.83333,20.16667z" fill="url(#color-11)" stroke="none" stroke-width="0"/><path d="M140.16667,209.97917c0,4.69442 7.16344,8.5 16,8.5c8.83656,0 16,-3.80558 16,-8.5c0,-4.69442 -7.16344,-8.5 -16,-8.5c-8.83656,0 -16,3.80558 -16,8.5z" fill="url(#color-12)" stroke="none" stroke-width="0"/><path d="M243.83333,211.64583c0,5.24671 -16.78932,9.5 -37.5,9.5c-20.71068,0 -37.5,-4.25329 -37.5,-9.5c0,-5.24671 16.78932,-9.5 37.5,-9.5c20.71068,0 37.5,4.25329 37.5,9.5z" fill="url(#color-13)" stroke="none" stroke-width="0"/><path d="M280.16667,196.64583c0,12.24231 -17.98323,22.16667 -40.16667,22.16667c-22.18344,0 -40.16667,-9.92435 -40.16667,-22.16667c0,-12.24231 17.98323,-22.16667 40.16667,-22.16667c22.18344,0 40.16667,9.92435 40.16667,22.16667z" fill="url(#color-14)" stroke="none" stroke-width="0"/><path d="M219.5,192.64583c0,-10.21727 -7.7604,-18.5 -17.33333,-18.5c-9.57294,0 -17.33333,8.28273 -17.33333,18.5c0,10.21727 7.7604,18.5 17.33333,18.5c9.57294,0 17.33333,-8.28273 17.33333,-18.5z" fill="url(#color-15)" stroke="none" stroke-width="0"/><path d="M273.16667,172.97917c0,9.1127 -22.68424,16.5 -50.66667,16.5c-27.98243,0 -50.66667,-7.3873 -50.66667,-16.5c0,-9.1127 22.68424,-16.5 50.66667,-16.5c27.98243,0 50.66667,7.3873 50.66667,16.5z" fill="url(#color-16)" stroke="none" stroke-width="0"/><path d="M288.16667,145.47917c0,-2.39323 -23.65429,-4.33333 -52.83333,-4.33333c-29.17904,0 -52.83333,1.9401 -52.83333,4.33333c0,2.39323 23.65429,4.33333 52.83333,4.33333c29.17904,0 52.83333,-1.9401 52.83333,-4.33333z" fill="url(#color-17)" stroke="none" stroke-width="0"/><path d="M248.16667,151.14583c0,-7.91608 -9.55126,-14.33333 -21.33333,-14.33333c-11.78207,0 -21.33333,6.41725 -21.33333,14.33333c0,7.91608 9.55126,14.33333 21.33333,14.33333c11.78207,0 21.33333,-6.41725 21.33333,-14.33333z" fill="url(#color-18)" stroke="none" stroke-width="0"/><path d="M232.16667,162.64583c0,8.9286 11.11826,16.16667 24.83333,16.16667c13.71507,0 24.83333,-7.23806 24.83333,-16.16667c0,-8.9286 -11.11826,-16.16667 -24.83333,-16.16667c-13.71507,0 -24.83333,7.23806 -24.83333,16.16667z" fill="url(#color-19)" stroke="none" stroke-width="0"/><path d="M238.16667,203.64583c0,-6.35127 20.81876,-11.5 46.5,-11.5c25.68124,0 46.5,5.14873 46.5,11.5c0,6.35127 -20.81876,11.5 -46.5,11.5c-25.68124,0 -46.5,-5.14873 -46.5,-11.5z" fill="url(#color-20)" stroke="none" stroke-width="0"/><path d="M257.83333,175.3125c0,-20.52658 14.25227,-37.16667 31.83333,-37.16667c17.58106,0 31.83333,16.64008 31.83333,37.16667c0,20.52658 -14.25227,37.16667 -31.83333,37.16667c-17.58106,0 -31.83333,-16.64008 -31.83333,-37.16667z" fill="url(#color-21)" stroke="none" stroke-width="0"/><path d="M344.16667,148.14583c0,4.41828 5.14873,8 11.5,8c6.35127,0 11.5,-3.58172 11.5,-8c0,-4.41828 -5.14873,-8 -11.5,-8c-6.35127,0 -11.5,3.58172 -11.5,8z" fill="url(#color-22)" stroke="none" stroke-width="0"/><path d="M342.5,178.64583c0,22.73572 -11.19288,41.16667 -25,41.16667c-13.80712,0 -25,-18.43094 -25,-41.16667c0,-22.73572 11.19288,-41.16667 25,-41.16667c13.80712,0 25,18.43094 25,41.16667z" fill="url(#color-23)" stroke="none" stroke-width="0"/><path d="M376.83333,156.64583c0,10.95365 -4.17868,19.83333 -9.33333,19.83333c-5.15466,0 -9.33333,-8.87969 -9.33333,-19.83333c0,-10.95365 4.17868,-19.83333 9.33333,-19.83333c5.15466,0 9.33333,8.87969 9.33333,19.83333z" fill="url(#color-24)" stroke="none" stroke-width="0"/><path d="M349.16667,149.64583c0,3.40576 -5.14873,6.16667 -11.5,6.16667c-6.35127,0 -11.5,-2.76091 -11.5,-6.16667c0,-3.40576 5.14873,-6.16667 11.5,-6.16667c6.35127,0 11.5,2.76091 11.5,6.16667z" fill="url(#color-25)" stroke="none" stroke-width="0"/><path d="M332.83333,177.8125c0,10.49341 6.19339,19 13.83333,19c7.63994,0 13.83333,-8.50659 13.83333,-19c0,-10.49341 -6.19339,-19 -13.83333,-19c-7.63994,0 -13.83333,8.50659 -13.83333,19z" fill="url(#color-26)" stroke="none" stroke-width="0"/><path d="M360.83333,158.3125c0,4.87852 -4.99949,8.83333 -11.16667,8.83333c-6.16718,0 -11.16667,-3.95482 -11.16667,-8.83333c0,-4.87852 4.99949,-8.83333 11.16667,-8.83333c6.16718,0 11.16667,3.95482 11.16667,8.83333z" fill="url(#color-27)" stroke="none" stroke-width="0"/><path d="M341.5,154.64583c0,1.01252 -1.86548,1.83333 -4.16667,1.83333c-2.30119,0 -4.16667,-0.82081 -4.16667,-1.83333c0,-1.01252 1.86548,-1.83333 4.16667,-1.83333c2.30119,0 4.16667,0.82081 4.16667,1.83333z" fill="url(#color-28)" stroke="none" stroke-width="0"/><path d="M366.16667,175.8125c0,11.41388 -3.20863,20.66667 -7.16667,20.66667c-3.95804,0 -7.16667,-9.25278 -7.16667,-20.66667c0,-11.41388 3.20863,-20.66667 7.16667,-20.66667c3.95804,0 7.16667,9.25278 7.16667,20.66667z" fill="url(#color-29)" stroke="none" stroke-width="0"/><path d="M372.5,207.8125c0,5.52285 -10.29745,10 -23,10c-12.70255,0 -23,-4.47715 -23,-10c0,-5.52285 10.29745,-10 23,-10c12.70255,0 23,4.47715 23,10z" fill="url(#color-30)" stroke="none" stroke-width="0"/><path d="M370.83333,196.47917c0,6.07513 -7.98426,11 -17.83333,11c-9.84908,0 -17.83333,-4.92487 -17.83333,-11c0,-6.07513 7.98426,-11 17.83333,-11c9.84908,0 17.83333,4.92487 17.83333,11z" fill="url(#color-31)" stroke="none" stroke-width="0"/><text transform="translate(177.5,190.59042) scale(0.90769,0.90769)" font-size="40" xml:space="preserve" fill="#05ff00" fill-rule="nonzero" stroke="none" stroke-width="1" stroke-linecap="butt" stroke-linejoin="miter" stroke-miterlimit="10" stroke-dasharray="" stroke-dashoffset="0" font-family="Pixel" font-weight="normal" text-anchor="start" style="mix-blend-mode: normal"><tspan x="0" dy="0">Start</tspan></text></g></g></svg>