<svg version="1.1" xmlns="http://www.w3.org/2000/svg" xmlns:xlink="http://www.w3.org/1999/xlink" width="696" height="466.3125" viewBox="0,0,696,466.3125"><g transform="translate(112.0625,46)"><g data-paper-data="{&quot;isPaintingLayer&quot;:true}" fill-rule="nonzero" stroke="none" stroke-width="0" stroke-linecap="butt" stroke-linejoin="miter" stroke-miterlimit="10" stroke-dasharray="" stroke-dashoffset="0" style="mix-blend-mode: normal"><path d="M-50.5,404v-450h569v450z" fill="#292929"/><path d="M85.9375,128.8125c0,13.53098 -22.1619,24.5 -49.5,24.5c-27.3381,0 -49.5,-10.96902 -49.5,-24.5c0,-13.53098 22.1619,-24.5 49.5,-24.5c27.3381,0 49.5,10.96902 49.5,24.5z" fill="#161616"/><path d="M63.9375,91.8125c0,13.53098 -22.16191,24.5 -49.5,24.5c-27.33809,0 -49.5,-10.96902 -49.5,-24.5c0,-13.53097 22.16191,-24.5 49.5,-24.5c27.33809,0 49.5,10.96903 49.5,24.5z" fill="#161616"/><path d="M23.9375,119.8125c0,13.53098 -22.16191,24.5 -49.5,24.5c-27.33809,0 -49.5,-10.96902 -49.5,-24.5c0,-13.53098 22.16191,-24.5 49.5,-24.5c27.33809,0 49.5,10.96902 49.5,24.5z" fill="#161616"/><path d="M127.9375,100.3125c0,12.70255 -21.49033,23 -48,23c-26.50967,0 -48,-10.29745 -48,-23c0,-12.70255 21.49033,-23 48,-23c26.50967,0 48,10.29745 48,23z" fill="#000000"/><path d="M94.9375,60.3125c0,12.70255 -21.49033,23 -48,23c-26.50967,0 -48,-10.29745 -48,-23c0,-12.70255 21.49033,-23 48,-23c26.50967,0 48,10.29745 48,23z" fill="#131313"/><path d="M151.9375,72.3125c0,12.70255 -21.49033,23 -48,23c-26.50967,0 -48,-10.29745 -48,-23c0,-12.70255 21.49033,-23 48,-23c26.50967,0 48,10.29745 48,23z" fill="#4b4b4b"/><path d="M48.9375,51.8125c0,13.53098 -22.16191,24.5 -49.5,24.5c-27.33809,0 -49.5,-10.96902 -49.5,-24.5c0,-13.53097 22.16191,-24.5 49.5,-24.5c27.33809,0 49.5,10.96903 49.5,24.5z" fill="#161616"/><path d="M26.9375,14.8125c0,13.53097 -22.16191,24.5 -49.5,24.5c-27.33809,0 -49.5,-10.96903 -49.5,-24.5c0,-13.53097 22.16191,-24.5 49.5,-24.5c27.33809,0 49.5,10.96903 49.5,24.5z" fill="#161616"/><path d="M-13.0625,42.8125c0,13.53098 -22.16191,24.5 -49.5,24.5c-27.33809,0 -49.5,-10.96902 -49.5,-24.5c0,-13.53097 22.16191,-24.5 49.5,-24.5c27.33809,0 49.5,10.96903 49.5,24.5z" fill="#161616"/><path d="M90.9375,23.3125c0,12.70255 -21.49033,23 -48,23c-26.50967,0 -48,-10.29745 -48,-23c0,-12.70255 21.49033,-23 48,-23c26.50967,0 48,10.29745 48,23z" fill="#000000"/><path d="M57.9375,-16.6875c0,12.70255 -21.49033,23 -48,23c-26.50967,0 -48,-10.29745 -48,-23c0,-12.70255 21.49033,-23 48,-23c26.50967,0 48,10.29745 48,23z" fill="#131313"/><path d="M114.9375,-4.6875c0,12.70255 -21.49033,23 -48,23c-26.50967,0 -48,-10.29745 -48,-23c0,-12.70255 21.49033,-23 48,-23c26.50967,0 48,10.29745 48,23z" fill="#4b4b4b"/><path d="M177.9375,78.8125c0,13.53097 -22.1619,24.5 -49.5,24.5c-27.33809,0 -49.5,-10.96903 -49.5,-24.5c0,-13.53097 22.16191,-24.5 49.5,-24.5c27.3381,0 49.5,10.96903 49.5,24.5z" fill="#161616"/><path d="M155.9375,41.8125c0,13.53097 -22.1619,24.5 -49.5,24.5c-27.33809,0 -49.5,-10.96903 -49.5,-24.5c0,-13.53097 22.16191,-24.5 49.5,-24.5c27.3381,0 49.5,10.96903 49.5,24.5z" fill="#161616"/><path d="M115.9375,69.8125c0,13.53097 -22.16191,24.5 -49.5,24.5c-27.33809,0 -49.5,-10.96903 -49.5,-24.5c0,-13.53097 22.16191,-24.5 49.5,-24.5c27.33809,0 49.5,10.96903 49.5,24.5z" fill="#161616"/><path d="M219.9375,50.3125c0,12.70255 -21.49033,23 -48,23c-26.50967,0 -48,-10.29745 -48,-23c0,-12.70255 21.49033,-23 48,-23c26.50967,0 48,10.29745 48,23z" fill="#000000"/><path d="M186.9375,10.3125c0,12.70255 -21.49033,23 -48,23c-26.50967,0 -48,-10.29745 -48,-23c0,-12.70255 21.49033,-23 48,-23c26.50967,0 48,10.29745 48,23z" fill="#131313"/><path d="M243.9375,22.3125c0,12.70255 -21.49033,23 -48,23c-26.50967,0 -48,-10.29745 -48,-23c0,-12.70255 21.49033,-23 48,-23c26.50967,0 48,10.29745 48,23z" fill="#4b4b4b"/><path d="M176.9375,60.8125c0,-13.53097 22.1619,-24.5 49.5,-24.5c27.3381,0 49.5,10.96903 49.5,24.5c0,13.53097 -22.1619,24.5 -49.5,24.5c-27.3381,0 -49.5,-10.96903 -49.5,-24.5z" data-paper-data="{&quot;index&quot;:null}" fill="#161616"/><path d="M198.9375,97.8125c0,-13.53097 22.1619,-24.5 49.5,-24.5c27.3381,0 49.5,10.96903 49.5,24.5c0,13.53098 -22.1619,24.5 -49.5,24.5c-27.3381,0 -49.5,-10.96902 -49.5,-24.5z" data-paper-data="{&quot;index&quot;:null}" fill="#161616"/><path d="M238.9375,69.8125c0,-13.53097 22.1619,-24.5 49.5,-24.5c27.3381,0 49.5,10.96903 49.5,24.5c0,13.53097 -22.1619,24.5 -49.5,24.5c-27.3381,0 -49.5,-10.96903 -49.5,-24.5z" data-paper-data="{&quot;index&quot;:null}" fill="#161616"/><path d="M134.9375,89.3125c0,-12.70255 21.49033,-23 48,-23c26.50967,0 48,10.29745 48,23c0,12.70255 -21.49033,23 -48,23c-26.50967,0 -48,-10.29745 -48,-23z" data-paper-data="{&quot;index&quot;:null}" fill="#000000"/><path d="M167.9375,129.3125c0,-12.70255 21.49033,-23 48,-23c26.50967,0 48,10.29745 48,23c0,12.70255 -21.49033,23 -48,23c-26.50967,0 -48,-10.29745 -48,-23z" data-paper-data="{&quot;index&quot;:null}" fill="#131313"/><path d="M110.9375,117.3125c0,-12.70255 21.49033,-23 48,-23c26.50967,0 48,10.29745 48,23c0,12.70255 -21.49033,23 -48,23c-26.50967,0 -48,-10.29745 -48,-23z" data-paper-data="{&quot;index&quot;:null}" fill="#4b4b4b"/><path d="M287.4375,35.3125c-27.3381,0 -49.5,-10.96903 -49.5,-24.5c0,-13.53097 22.1619,-24.5 49.5,-24.5c27.3381,0 49.5,10.96903 49.5,24.5c0,13.53097 -22.1619,24.5 -49.5,24.5z" data-paper-data="{&quot;index&quot;:null}" fill="#161616"/><path d="M265.4375,72.3125c-27.3381,0 -49.5,-10.96903 -49.5,-24.5c0,-13.53097 22.1619,-24.5 49.5,-24.5c27.3381,0 49.5,10.96903 49.5,24.5c0,13.53097 -22.1619,24.5 -49.5,24.5z" data-paper-data="{&quot;index&quot;:null}" fill="#161616"/><path d="M225.4375,44.3125c-27.3381,0 -49.5,-10.96903 -49.5,-24.5c0,-13.53097 22.1619,-24.5 49.5,-24.5c27.3381,0 49.5,10.96903 49.5,24.5c0,13.53097 -22.1619,24.5 -49.5,24.5z" data-paper-data="{&quot;index&quot;:null}" fill="#161616"/><path d="M330.9375,62.3125c-26.50967,0 -48,-10.29745 -48,-23c0,-12.70255 21.49033,-23 48,-23c26.50967,0 48,10.29745 48,23c0,12.70255 -21.49033,23 -48,23z" data-paper-data="{&quot;index&quot;:null}" fill="#000000"/><path d="M297.9375,102.3125c-26.50967,0 -48,-10.29745 -48,-23c0,-12.70255 21.49033,-23 48,-23c26.50967,0 48,10.29745 48,23c0,12.70255 -21.49033,23 -48,23z" data-paper-data="{&quot;index&quot;:null}" fill="#131313"/><path d="M354.9375,90.3125c-26.50967,0 -48,-10.29745 -48,-23c0,-12.70255 21.49033,-23 48,-23c26.50967,0 48,10.29745 48,23c0,12.70255 -21.49033,23 -48,23z" data-paper-data="{&quot;index&quot;:null}" fill="#4b4b4b"/><path d="M455.9375,64.8125c0,13.53097 -22.1619,24.5 -49.5,24.5c-27.3381,0 -49.5,-10.96903 -49.5,-24.5c0,-13.53097 22.1619,-24.5 49.5,-24.5c27.3381,0 49.5,10.96903 49.5,24.5z" data-paper-data="{&quot;index&quot;:null}" fill="#161616"/><path d="M433.9375,27.8125c0,13.53097 -22.1619,24.5 -49.5,24.5c-27.3381,0 -49.5,-10.96903 -49.5,-24.5c0,-13.53097 22.1619,-24.5 49.5,-24.5c27.3381,0 49.5,10.96903 49.5,24.5z" data-paper-data="{&quot;index&quot;:null}" fill="#161616"/><path d="M393.9375,55.8125c0,13.53097 -22.1619,24.5 -49.5,24.5c-27.3381,0 -49.5,-10.96903 -49.5,-24.5c0,-13.53097 22.1619,-24.5 49.5,-24.5c27.3381,0 49.5,10.96903 49.5,24.5z" data-paper-data="{&quot;index&quot;:null}" fill="#161616"/><path d="M497.9375,36.3125c0,12.70255 -21.49033,23 -48,23c-26.50967,0 -48,-10.29745 -48,-23c0,-12.70255 21.49033,-23 48,-23c26.50967,0 48,10.29745 48,23z" data-paper-data="{&quot;index&quot;:null}" fill="#000000"/><path d="M464.9375,-3.6875c0,12.70255 -21.49033,23 -48,23c-26.50967,0 -48,-10.29745 -48,-23c0,-12.70255 21.49033,-23 48,-23c26.50967,0 48,10.29745 48,23z" data-paper-data="{&quot;index&quot;:null}" fill="#131313"/><path d="M521.9375,8.3125c0,12.70255 -21.49033,23 -48,23c-26.50967,0 -48,-10.29745 -48,-23c0,-12.70255 21.49033,-23 48,-23c26.50967,0 48,10.29745 48,23z" data-paper-data="{&quot;index&quot;:null}" fill="#4b4b4b"/><path d="M414.4375,48.3125c27.3381,0 49.5,10.96903 49.5,24.5c0,13.53097 -22.1619,24.5 -49.5,24.5c-27.3381,0 -49.5,-10.96903 -49.5,-24.5c0,-13.53097 22.1619,-24.5 49.5,-24.5z" data-paper-data="{&quot;index&quot;:null}" fill="#161616"/><path d="M436.4375,11.3125c27.3381,0 49.5,10.96903 49.5,24.5c0,13.53097 -22.1619,24.5 -49.5,24.5c-27.3381,0 -49.5,-10.96903 -49.5,-24.5c0,-13.53097 22.1619,-24.5 49.5,-24.5z" data-paper-data="{&quot;index&quot;:null}" fill="#161616"/><path d="M476.4375,39.3125c27.3381,0 49.5,10.96903 49.5,24.5c0,13.53097 -22.1619,24.5 -49.5,24.5c-27.3381,0 -49.5,-10.96903 -49.5,-24.5c0,-13.53097 22.1619,-24.5 49.5,-24.5z" data-paper-data="{&quot;index&quot;:null}" fill="#161616"/><path d="M370.9375,21.3125c26.50967,0 48,10.29745 48,23c0,12.70255 -21.49033,23 -48,23c-26.50967,0 -48,-10.29745 -48,-23c0,-12.70255 21.49033,-23 48,-23z" data-paper-data="{&quot;index&quot;:null}" fill="#000000"/><path d="M403.9375,-18.6875c26.50967,0 48,10.29745 48,23c0,12.70255 -21.49033,23 -48,23c-26.50967,0 -48,-10.29745 -48,-23c0,-12.70255 21.49033,-23 48,-23z" data-paper-data="{&quot;index&quot;:null}" fill="#131313"/><path d="M346.9375,-6.6875c26.50967,0 48,10.29745 48,23c0,12.70255 -21.49033,23 -48,23c-26.50967,0 -48,-10.29745 -48,-23c0,-12.70255 21.49033,-23 48,-23z" data-paper-data="{&quot;index&quot;:null}" fill="#4b4b4b"/><path d="M422.9375,93.8125c0,-13.53098 22.1619,-24.5 49.5,-24.5c27.3381,0 49.5,10.96902 49.5,24.5c0,13.53098 -22.1619,24.5 -49.5,24.5c-27.3381,0 -49.5,-10.96902 -49.5,-24.5z" data-paper-data="{&quot;index&quot;:null}" fill="#161616"/><path d="M444.9375,130.8125c0,-13.53098 22.1619,-24.5 49.5,-24.5c27.3381,0 49.5,10.96902 49.5,24.5c0,13.53098 -22.1619,24.5 -49.5,24.5c-27.3381,0 -49.5,-10.96902 -49.5,-24.5z" data-paper-data="{&quot;index&quot;:null}" fill="#161616"/><path d="M484.9375,102.8125c0,-13.53098 22.1619,-24.5 49.5,-24.5c27.3381,0 49.5,10.96902 49.5,24.5c0,13.53098 -22.1619,24.5 -49.5,24.5c-27.3381,0 -49.5,-10.96902 -49.5,-24.5z" data-paper-data="{&quot;index&quot;:null}" fill="#161616"/><path d="M380.9375,122.3125c0,-12.70255 21.49033,-23 48,-23c26.50967,0 48,10.29745 48,23c0,12.70255 -21.49033,23 -48,23c-26.50967,0 -48,-10.29745 -48,-23z" data-paper-data="{&quot;index&quot;:null}" fill="#000000"/><path d="M413.9375,162.3125c0,-12.70255 21.49033,-23 48,-23c26.50967,0 48,10.29745 48,23c0,12.70255 -21.49033,23 -48,23c-26.50967,0 -48,-10.29745 -48,-23z" data-paper-data="{&quot;index&quot;:null}" fill="#131313"/><path d="M356.9375,150.3125c0,-12.70255 21.49033,-23 48,-23c26.50967,0 48,10.29745 48,23c0,12.70255 -21.49033,23 -48,23c-26.50967,0 -48,-10.29745 -48,-23z" data-paper-data="{&quot;index&quot;:null}" fill="#4b4b4b"/><path d="M376.9375,140.8125c0,13.53098 -22.1619,24.5 -49.5,24.5c-27.3381,0 -49.5,-10.96902 -49.5,-24.5c0,-13.53098 22.1619,-24.5 49.5,-24.5c27.3381,0 49.5,10.96902 49.5,24.5z" data-paper-data="{&quot;index&quot;:null}" fill="#161616"/><path d="M354.9375,103.8125c0,13.53097 -22.1619,24.5 -49.5,24.5c-27.33809,0 -49.5,-10.96903 -49.5,-24.5c0,-13.53098 22.16191,-24.5 49.5,-24.5c27.3381,0 49.5,10.96902 49.5,24.5z" data-paper-data="{&quot;index&quot;:null}" fill="#161616"/><path d="M314.9375,131.8125c0,13.53098 -22.1619,24.5 -49.5,24.5c-27.33809,0 -49.5,-10.96902 -49.5,-24.5c0,-13.53097 22.16191,-24.5 49.5,-24.5c27.3381,0 49.5,10.96903 49.5,24.5z" data-paper-data="{&quot;index&quot;:null}" fill="#161616"/><path d="M418.9375,112.3125c0,12.70255 -21.49033,23 -48,23c-26.50967,0 -48,-10.29745 -48,-23c0,-12.70255 21.49033,-23 48,-23c26.50967,0 48,10.29745 48,23z" data-paper-data="{&quot;index&quot;:null}" fill="#000000"/><path d="M385.9375,72.3125c0,12.70255 -21.49033,23 -48,23c-26.50967,0 -48,-10.29745 -48,-23c0,-12.70255 21.49033,-23 48,-23c26.50967,0 48,10.29745 48,23z" data-paper-data="{&quot;index&quot;:null}" fill="#131313"/><path d="M442.9375,84.3125c0,12.70255 -21.49033,23 -48,23c-26.50967,0 -48,-10.29745 -48,-23c0,-12.70255 21.49033,-23 48,-23c26.50967,0 48,10.29745 48,23z" data-paper-data="{&quot;index&quot;:null}" fill="#4b4b4b"/><path d="M161.9375,128.8125c0,-13.53098 22.1619,-24.5 49.5,-24.5c27.3381,0 49.5,10.96902 49.5,24.5c0,13.53098 -22.1619,24.5 -49.5,24.5c-27.3381,0 -49.5,-10.96902 -49.5,-24.5z" data-paper-data="{&quot;index&quot;:null}" fill="#161616"/><path d="M183.9375,165.8125c0,-13.53098 22.1619,-24.5 49.5,-24.5c27.3381,0 49.5,10.96902 49.5,24.5c0,13.53098 -22.1619,24.5 -49.5,24.5c-27.3381,0 -49.5,-10.96902 -49.5,-24.5z" data-paper-data="{&quot;index&quot;:null}" fill="#161616"/><path d="M223.9375,137.8125c0,-13.53098 22.1619,-24.5 49.5,-24.5c27.3381,0 49.5,10.96902 49.5,24.5c0,13.53098 -22.1619,24.5 -49.5,24.5c-27.3381,0 -49.5,-10.96902 -49.5,-24.5z" data-paper-data="{&quot;index&quot;:null}" fill="#161616"/><path d="M119.9375,157.3125c0,-12.70255 21.49033,-23 48,-23c26.50967,0 48,10.29745 48,23c0,12.70255 -21.49033,23 -48,23c-26.50967,0 -48,-10.29745 -48,-23z" data-paper-data="{&quot;index&quot;:null}" fill="#000000"/><path d="M152.9375,197.3125c0,-12.70255 21.49033,-23 48,-23c26.50967,0 48,10.29745 48,23c0,12.70255 -21.49033,23 -48,23c-26.50967,0 -48,-10.29745 -48,-23z" data-paper-data="{&quot;index&quot;:null}" fill="#131313"/><path d="M95.9375,185.3125c0,-12.70255 21.49033,-23 48,-23c26.50967,0 48,10.29745 48,23c0,12.70255 -21.49033,23 -48,23c-26.50967,0 -48,-10.29745 -48,-23z" data-paper-data="{&quot;index&quot;:null}" fill="#4b4b4b"/><path d="M82.4375,159.3125c27.3381,0 49.5,10.96902 49.5,24.5c0,13.53098 -22.1619,24.5 -49.5,24.5c-27.3381,0 -49.5,-10.96902 -49.5,-24.5c0,-13.53098 22.1619,-24.5 49.5,-24.5z" data-paper-data="{&quot;index&quot;:null}" fill="#161616"/><path d="M104.4375,122.3125c27.3381,0 49.5,10.96902 49.5,24.5c0,13.53098 -22.1619,24.5 -49.5,24.5c-27.3381,0 -49.5,-10.96902 -49.5,-24.5c0,-13.53098 22.1619,-24.5 49.5,-24.5z" data-paper-data="{&quot;index&quot;:null}" fill="#161616"/><path d="M144.4375,150.3125c27.3381,0 49.5,10.96902 49.5,24.5c0,13.53098 -22.1619,24.5 -49.5,24.5c-27.3381,0 -49.5,-10.96902 -49.5,-24.5c0,-13.53098 22.1619,-24.5 49.5,-24.5z" data-paper-data="{&quot;index&quot;:null}" fill="#161616"/><path d="M38.9375,132.3125c26.50967,0 48,10.29745 48,23c0,12.70255 -21.49033,23 -48,23c-26.50967,0 -48,-10.29745 -48,-23c0,-12.70255 21.49033,-23 48,-23z" data-paper-data="{&quot;index&quot;:null}" fill="#000000"/><path d="M71.9375,92.3125c26.50967,0 48,10.29745 48,23c0,12.70255 -21.49033,23 -48,23c-26.50967,0 -48,-10.29745 -48,-23c0,-12.70255 21.49033,-23 48,-23z" data-paper-data="{&quot;index&quot;:null}" fill="#131313"/><path d="M14.9375,104.3125c26.50967,0 48,10.29745 48,23c0,12.70255 -21.49033,23 -48,23c-26.50967,0 -48,-10.29745 -48,-23c0,-12.70255 21.49033,-23 48,-23z" data-paper-data="{&quot;index&quot;:null}" fill="#4b4b4b"/><path d="M-20.0625,146.8125c0,-13.53098 22.1619,-24.5 49.5,-24.5c27.3381,0 49.5,10.96902 49.5,24.5c0,13.53098 -22.1619,24.5 -49.5,24.5c-27.3381,0 -49.5,-10.96902 -49.5,-24.5z" data-paper-data="{&quot;index&quot;:null}" fill="#161616"/><path d="M1.9375,183.8125c0,-13.53098 22.1619,-24.5 49.5,-24.5c27.3381,0 49.5,10.96902 49.5,24.5c0,13.53098 -22.1619,24.5 -49.5,24.5c-27.3381,0 -49.5,-10.96902 -49.5,-24.5z" data-paper-data="{&quot;index&quot;:null}" fill="#161616"/><path d="M41.9375,155.8125c0,-13.53098 22.1619,-24.5 49.5,-24.5c27.3381,0 49.5,10.96902 49.5,24.5c0,13.53098 -22.1619,24.5 -49.5,24.5c-27.3381,0 -49.5,-10.96902 -49.5,-24.5z" data-paper-data="{&quot;index&quot;:null}" fill="#161616"/><path d="M-62.0625,175.3125c0,-12.70255 21.49033,-23 48,-23c26.50967,0 48,10.29745 48,23c0,12.70255 -21.49033,23 -48,23c-26.50967,0 -48,-10.29745 -48,-23z" data-paper-data="{&quot;index&quot;:null}" fill="#000000"/><path d="M-29.0625,215.3125c0,-12.70255 21.49033,-23 48,-23c26.50967,0 48,10.29745 48,23c0,12.70255 -21.49033,23 -48,23c-26.50967,0 -48,-10.29745 -48,-23z" data-paper-data="{&quot;index&quot;:null}" fill="#131313"/><path d="M-86.0625,203.3125c0,-12.70255 21.49033,-23 48,-23c26.50967,0 48,10.29745 48,23c0,12.70255 -21.49033,23 -48,23c-26.50967,0 -48,-10.29745 -48,-23z" data-paper-data="{&quot;index&quot;:null}" fill="#4b4b4b"/><path d="M143.4375,211.3125c-27.3381,0 -49.5,-10.96902 -49.5,-24.5c0,-13.53098 22.1619,-24.5 49.5,-24.5c27.3381,0 49.5,10.96902 49.5,24.5c0,13.53098 -22.1619,24.5 -49.5,24.5z" data-paper-data="{&quot;index&quot;:null}" fill="#161616"/><path d="M121.4375,248.3125c-27.3381,0 -49.5,-10.96902 -49.5,-24.5c0,-13.53098 22.1619,-24.5 49.5,-24.5c27.3381,0 49.5,10.96902 49.5,24.5c0,13.53098 -22.1619,24.5 -49.5,24.5z" data-paper-data="{&quot;index&quot;:null}" fill="#161616"/><path d="M81.4375,220.3125c-27.3381,0 -49.5,-10.96902 -49.5,-24.5c0,-13.53098 22.1619,-24.5 49.5,-24.5c27.3381,0 49.5,10.96902 49.5,24.5c0,13.53098 -22.1619,24.5 -49.5,24.5z" data-paper-data="{&quot;index&quot;:null}" fill="#161616"/><path d="M186.9375,238.3125c-26.50967,0 -48,-10.29745 -48,-23c0,-12.70255 21.49033,-23 48,-23c26.50967,0 48,10.29745 48,23c0,12.70255 -21.49033,23 -48,23z" data-paper-data="{&quot;index&quot;:null}" fill="#000000"/><path d="M153.9375,278.3125c-26.50967,0 -48,-10.29745 -48,-23c0,-12.70255 21.49033,-23 48,-23c26.50967,0 48,10.29745 48,23c0,12.70255 -21.49033,23 -48,23z" data-paper-data="{&quot;index&quot;:null}" fill="#131313"/><path d="M210.9375,266.3125c-26.50967,0 -48,-10.29745 -48,-23c0,-12.70255 21.49033,-23 48,-23c26.50967,0 48,10.29745 48,23c0,12.70255 -21.49033,23 -48,23z" data-paper-data="{&quot;index&quot;:null}" fill="#4b4b4b"/><path d="M336.9375,234.8125c0,13.53098 -22.1619,24.5 -49.5,24.5c-27.3381,0 -49.5,-10.96902 -49.5,-24.5c0,-13.53098 22.1619,-24.5 49.5,-24.5c27.3381,0 49.5,10.96902 49.5,24.5z" data-paper-data="{&quot;index&quot;:null}" fill="#161616"/><path d="M314.9375,197.8125c0,13.53098 -22.1619,24.5 -49.5,24.5c-27.3381,0 -49.5,-10.96902 -49.5,-24.5c0,-13.53098 22.1619,-24.5 49.5,-24.5c27.3381,0 49.5,10.96902 49.5,24.5z" data-paper-data="{&quot;index&quot;:null}" fill="#161616"/><path d="M274.9375,225.8125c0,13.53098 -22.1619,24.5 -49.5,24.5c-27.3381,0 -49.5,-10.96902 -49.5,-24.5c0,-13.53098 22.1619,-24.5 49.5,-24.5c27.3381,0 49.5,10.96902 49.5,24.5z" data-paper-data="{&quot;index&quot;:null}" fill="#161616"/><path d="M378.9375,206.3125c0,12.70255 -21.49033,23 -48,23c-26.50967,0 -48,-10.29745 -48,-23c0,-12.70255 21.49033,-23 48,-23c26.50967,0 48,10.29745 48,23z" data-paper-data="{&quot;index&quot;:null}" fill="#000000"/><path d="M345.9375,166.3125c0,12.70255 -21.49033,23 -48,23c-26.50967,0 -48,-10.29745 -48,-23c0,-12.70255 21.49033,-23 48,-23c26.50967,0 48,10.29745 48,23z" data-paper-data="{&quot;index&quot;:null}" fill="#131313"/><path d="M402.9375,178.3125c0,12.70255 -21.49033,23 -48,23c-26.50967,0 -48,-10.29745 -48,-23c0,-12.70255 21.49033,-23 48,-23c26.50967,0 48,10.29745 48,23z" data-paper-data="{&quot;index&quot;:null}" fill="#4b4b4b"/><path d="M362.9375,188.8125c0,-13.53098 22.1619,-24.5 49.5,-24.5c27.3381,0 49.5,10.96902 49.5,24.5c0,13.53098 -22.1619,24.5 -49.5,24.5c-27.3381,0 -49.5,-10.96902 -49.5,-24.5z" data-paper-data="{&quot;index&quot;:null}" fill="#161616"/><path d="M384.9375,225.8125c0,-13.53098 22.1619,-24.5 49.5,-24.5c27.3381,0 49.5,10.96902 49.5,24.5c0,13.53098 -22.1619,24.5 -49.5,24.5c-27.3381,0 -49.5,-10.96902 -49.5,-24.5z" data-paper-data="{&quot;index&quot;:null}" fill="#161616"/><path d="M424.9375,197.8125c0,-13.53098 22.1619,-24.5 49.5,-24.5c27.3381,0 49.5,10.96902 49.5,24.5c0,13.53098 -22.1619,24.5 -49.5,24.5c-27.3381,0 -49.5,-10.96902 -49.5,-24.5z" data-paper-data="{&quot;index&quot;:null}" fill="#161616"/><path d="M320.9375,217.3125c0,-12.70255 21.49033,-23 48,-23c26.50967,0 48,10.29745 48,23c0,12.70255 -21.49033,23 -48,23c-26.50967,0 -48,-10.29745 -48,-23z" data-paper-data="{&quot;index&quot;:null}" fill="#000000"/><path d="M353.9375,257.3125c0,-12.70255 21.49033,-23 48,-23c26.50967,0 48,10.29745 48,23c0,12.70255 -21.49033,23 -48,23c-26.50967,0 -48,-10.29745 -48,-23z" data-paper-data="{&quot;index&quot;:null}" fill="#131313"/><path d="M296.9375,245.3125c0,-12.70255 21.49033,-23 48,-23c26.50967,0 48,10.29745 48,23c0,12.70255 -21.49033,23 -48,23c-26.50967,0 -48,-10.29745 -48,-23z" data-paper-data="{&quot;index&quot;:null}" fill="#4b4b4b"/><path d="M452.4375,281.3125c-27.3381,0 -49.5,-10.96902 -49.5,-24.5c0,-13.53098 22.1619,-24.5 49.5,-24.5c27.3381,0 49.5,10.96902 49.5,24.5c0,13.53098 -22.1619,24.5 -49.5,24.5z" data-paper-data="{&quot;index&quot;:null}" fill="#161616"/><path d="M430.4375,318.3125c-27.3381,0 -49.5,-10.96902 -49.5,-24.5c0,-13.53098 22.1619,-24.5 49.5,-24.5c27.3381,0 49.5,10.96902 49.5,24.5c0,13.53098 -22.1619,24.5 -49.5,24.5z" data-paper-data="{&quot;index&quot;:null}" fill="#161616"/><path d="M390.4375,290.3125c-27.3381,0 -49.5,-10.96902 -49.5,-24.5c0,-13.53098 22.1619,-24.5 49.5,-24.5c27.3381,0 49.5,10.96902 49.5,24.5c0,13.53098 -22.1619,24.5 -49.5,24.5z" data-paper-data="{&quot;index&quot;:null}" fill="#161616"/><path d="M495.9375,308.3125c-26.50967,0 -48,-10.29745 -48,-23c0,-12.70255 21.49033,-23 48,-23c26.50967,0 48,10.29745 48,23c0,12.70255 -21.49033,23 -48,23z" data-paper-data="{&quot;index&quot;:null}" fill="#000000"/><path d="M462.9375,348.3125c-26.50967,0 -48,-10.29745 -48,-23c0,-12.70255 21.49033,-23 48,-23c26.50967,0 48,10.29745 48,23c0,12.70255 -21.49033,23 -48,23z" data-paper-data="{&quot;index&quot;:null}" fill="#131313"/><path d="M519.9375,336.3125c-26.50967,0 -48,-10.29745 -48,-23c0,-12.70255 21.49033,-23 48,-23c26.50967,0 48,10.29745 48,23c0,12.70255 -21.49033,23 -48,23z" data-paper-data="{&quot;index&quot;:null}" fill="#4b4b4b"/><path d="M351.4375,314.3125c-27.3381,0 -49.5,-10.96902 -49.5,-24.5c0,-13.53098 22.1619,-24.5 49.5,-24.5c27.3381,0 49.5,10.96902 49.5,24.5c0,13.53098 -22.1619,24.5 -49.5,24.5z" data-paper-data="{&quot;index&quot;:null}" fill="#161616"/><path d="M329.4375,351.3125c-27.3381,0 -49.5,-10.96902 -49.5,-24.5c0,-13.53098 22.1619,-24.5 49.5,-24.5c27.3381,0 49.5,10.96902 49.5,24.5c0,13.53098 -22.1619,24.5 -49.5,24.5z" data-paper-data="{&quot;index&quot;:null}" fill="#161616"/><path d="M289.4375,323.3125c-27.3381,0 -49.5,-10.96902 -49.5,-24.5c0,-13.53098 22.1619,-24.5 49.5,-24.5c27.3381,0 49.5,10.96902 49.5,24.5c0,13.53098 -22.1619,24.5 -49.5,24.5z" data-paper-data="{&quot;index&quot;:null}" fill="#161616"/><path d="M394.9375,341.3125c-26.50967,0 -48,-10.29745 -48,-23c0,-12.70255 21.49033,-23 48,-23c26.50967,0 48,10.29745 48,23c0,12.70255 -21.49033,23 -48,23z" data-paper-data="{&quot;index&quot;:null}" fill="#000000"/><path d="M361.9375,381.3125c-26.50967,0 -48,-10.29745 -48,-23c0,-12.70255 21.49033,-23 48,-23c26.50967,0 48,10.29745 48,23c0,12.70255 -21.49033,23 -48,23z" data-paper-data="{&quot;index&quot;:null}" fill="#131313"/><path d="M418.9375,369.3125c-26.50967,0 -48,-10.29745 -48,-23c0,-12.70255 21.49033,-23 48,-23c26.50967,0 48,10.29745 48,23c0,12.70255 -21.49033,23 -48,23z" data-paper-data="{&quot;index&quot;:null}" fill="#4b4b4b"/><path d="M286.9375,328.8125c0,-13.53098 22.1619,-24.5 49.5,-24.5c27.3381,0 49.5,10.96902 49.5,24.5c0,13.53098 -22.1619,24.5 -49.5,24.5c-27.3381,0 -49.5,-10.96902 -49.5,-24.5z" data-paper-data="{&quot;index&quot;:null}" fill="#161616"/><path d="M308.9375,365.8125c0,-13.53098 22.1619,-24.5 49.5,-24.5c27.3381,0 49.5,10.96902 49.5,24.5c0,13.53098 -22.1619,24.5 -49.5,24.5c-27.3381,0 -49.5,-10.96902 -49.5,-24.5z" data-paper-data="{&quot;index&quot;:null}" fill="#161616"/><path d="M348.9375,337.8125c0,-13.53098 22.1619,-24.5 49.5,-24.5c27.3381,0 49.5,10.96902 49.5,24.5c0,13.53098 -22.1619,24.5 -49.5,24.5c-27.3381,0 -49.5,-10.96902 -49.5,-24.5z" data-paper-data="{&quot;index&quot;:null}" fill="#161616"/><path d="M244.9375,357.3125c0,-12.70255 21.49033,-23 48,-23c26.50967,0 48,10.29745 48,23c0,12.70255 -21.49033,23 -48,23c-26.50967,0 -48,-10.29745 -48,-23z" data-paper-data="{&quot;index&quot;:null}" fill="#000000"/><path d="M277.9375,397.3125c0,-12.70255 21.49033,-23 48,-23c26.50967,0 48,10.29745 48,23c0,12.70255 -21.49033,23 -48,23c-26.50967,0 -48,-10.29745 -48,-23z" data-paper-data="{&quot;index&quot;:null}" fill="#131313"/><path d="M220.9375,385.3125c0,-12.70255 21.49033,-23 48,-23c26.50967,0 48,10.29745 48,23c0,12.70255 -21.49033,23 -48,23c-26.50967,0 -48,-10.29745 -48,-23z" data-paper-data="{&quot;index&quot;:null}" fill="#4b4b4b"/><path d="M256.9375,348.8125c0,13.53098 -22.1619,24.5 -49.5,24.5c-27.3381,0 -49.5,-10.96902 -49.5,-24.5c0,-13.53098 22.1619,-24.5 49.5,-24.5c27.3381,0 49.5,10.96902 49.5,24.5z" data-paper-data="{&quot;index&quot;:null}" fill="#161616"/><path d="M234.9375,311.8125c0,13.53098 -22.1619,24.5 -49.5,24.5c-27.3381,0 -49.5,-10.96902 -49.5,-24.5c0,-13.53098 22.1619,-24.5 49.5,-24.5c27.3381,0 49.5,10.96902 49.5,24.5z" data-paper-data="{&quot;index&quot;:null}" fill="#161616"/><path d="M194.9375,339.8125c0,13.53098 -22.1619,24.5 -49.5,24.5c-27.3381,0 -49.5,-10.96902 -49.5,-24.5c0,-13.53098 22.1619,-24.5 49.5,-24.5c27.3381,0 49.5,10.96902 49.5,24.5z" data-paper-data="{&quot;index&quot;:null}" fill="#161616"/><path d="M298.9375,320.3125c0,12.70255 -21.49033,23 -48,23c-26.50967,0 -48,-10.29745 -48,-23c0,-12.70255 21.49033,-23 48,-23c26.50967,0 48,10.29745 48,23z" data-paper-data="{&quot;index&quot;:null}" fill="#000000"/><path d="M265.9375,280.3125c0,12.70255 -21.49033,23 -48,23c-26.50967,0 -48,-10.29745 -48,-23c0,-12.70255 21.49033,-23 48,-23c26.50967,0 48,10.29745 48,23z" data-paper-data="{&quot;index&quot;:null}" fill="#131313"/><path d="M322.9375,292.3125c0,12.70255 -21.49033,23 -48,23c-26.50967,0 -48,-10.29745 -48,-23c0,-12.70255 21.49033,-23 48,-23c26.50967,0 48,10.29745 48,23z" data-paper-data="{&quot;index&quot;:null}" fill="#4b4b4b"/><path d="M109.4375,321.3125c-27.3381,0 -49.5,-10.96902 -49.5,-24.5c0,-13.53098 22.1619,-24.5 49.5,-24.5c27.3381,0 49.5,10.96902 49.5,24.5c0,13.53098 -22.1619,24.5 -49.5,24.5z" data-paper-data="{&quot;index&quot;:null}" fill="#161616"/><path d="M87.4375,358.3125c-27.3381,0 -49.5,-10.96902 -49.5,-24.5c0,-13.53098 22.1619,-24.5 49.5,-24.5c27.3381,0 49.5,10.96902 49.5,24.5c0,13.53098 -22.1619,24.5 -49.5,24.5z" data-paper-data="{&quot;index&quot;:null}" fill="#161616"/><path d="M47.4375,330.3125c-27.33809,0 -49.5,-10.96902 -49.5,-24.5c0,-13.53098 22.16191,-24.5 49.5,-24.5c27.3381,0 49.5,10.96902 49.5,24.5c0,13.53098 -22.1619,24.5 -49.5,24.5z" data-paper-data="{&quot;index&quot;:null}" fill="#161616"/><path d="M152.9375,348.3125c-26.50967,0 -48,-10.29745 -48,-23c0,-12.70255 21.49033,-23 48,-23c26.50967,0 48,10.29745 48,23c0,12.70255 -21.49033,23 -48,23z" data-paper-data="{&quot;index&quot;:null}" fill="#000000"/><path d="M119.9375,388.3125c-26.50967,0 -48,-10.29745 -48,-23c0,-12.70255 21.49033,-23 48,-23c26.50967,0 48,10.29745 48,23c0,12.70255 -21.49033,23 -48,23z" data-paper-data="{&quot;index&quot;:null}" fill="#131313"/><path d="M176.9375,376.3125c-26.50967,0 -48,-10.29745 -48,-23c0,-12.70255 21.49033,-23 48,-23c26.50967,0 48,10.29745 48,23c0,12.70255 -21.49033,23 -48,23z" data-paper-data="{&quot;index&quot;:null}" fill="#4b4b4b"/><path d="M98.98596,301.8125c0,13.53098 -18.45198,24.5 -41.21366,24.5c-22.76167,0 -41.21366,-10.96902 -41.21366,-24.5c0,-13.53098 18.45198,-24.5 41.21366,-24.5c22.76167,0 41.21366,10.96902 41.21366,24.5z" data-paper-data="{&quot;index&quot;:null}" fill="#161616"/><path d="M80.66878,264.8125c0,13.53098 -18.45198,24.5 -41.21366,24.5c-22.76167,0 -41.21366,-10.96902 -41.21366,-24.5c0,-13.53098 18.45198,-24.5 41.21366,-24.5c22.76167,0 41.21366,10.96902 41.21366,24.5z" data-paper-data="{&quot;index&quot;:null}" fill="#161616"/><path d="M47.36481,292.8125c0,13.53098 -18.45198,24.5 -41.21366,24.5c-22.76167,0 -41.21366,-10.96902 -41.21366,-24.5c0,-13.53098 18.45198,-24.5 41.21366,-24.5c22.76167,0 41.21366,10.96902 41.21366,24.5z" data-paper-data="{&quot;index&quot;:null}" fill="#161616"/><path d="M133.95512,273.3125c0,12.70255 -17.89283,23 -39.96476,23c-22.07193,0 -39.96476,-10.29745 -39.96476,-23c0,-12.70255 17.89283,-23 39.96476,-23c22.07193,0 39.96476,10.29745 39.96476,23z" data-paper-data="{&quot;index&quot;:null}" fill="#000000"/><path d="M106.47935,233.3125c0,12.70255 -17.89283,23 -39.96476,23c-22.07193,0 -39.96476,-10.29745 -39.96476,-23c0,-12.70255 17.89283,-23 39.96476,-23c22.07193,0 39.96476,10.29745 39.96476,23z" data-paper-data="{&quot;index&quot;:null}" fill="#131313"/><path d="M153.9375,245.3125c0,12.70255 -17.89283,23 -39.96476,23c-22.07193,0 -39.96476,-10.29745 -39.96476,-23c0,-12.70255 17.89283,-23 39.96476,-23c22.07193,0 39.96476,10.29745 39.96476,23z" data-paper-data="{&quot;index&quot;:null}" fill="#4b4b4b"/><path d="M77.9375,342.8125c0,24.57667 -25.29591,44.5 -56.5,44.5c-31.20409,0 -56.5,-19.92333 -56.5,-44.5c0,-24.57667 25.29591,-44.5 56.5,-44.5c31.20409,0 56.5,19.92333 56.5,44.5z" fill="#000000"/></g></g></svg>