<svg version="1.1" xmlns="http://www.w3.org/2000/svg" xmlns:xlink="http://www.w3.org/1999/xlink" width="613" height="430.39194" viewBox="0,0,613,430.39194"><defs><radialGradient cx="349.9375" cy="263.3125" r="78" gradientUnits="userSpaceOnUse" id="color-1"><stop offset="0" stop-color="#616161"/><stop offset="1" stop-color="#b6b6b6"/></radialGradient></defs><g transform="translate(83.5,11.1875)"><g data-paper-data="{&quot;isPaintingLayer&quot;:true}" fill-rule="nonzero" stroke-linejoin="miter" stroke-miterlimit="10" stroke-dasharray="" stroke-dashoffset="0" style="mix-blend-mode: normal"><path d="M-19.5,402.8125v-413h548v413z" fill="#ff9100" stroke="#000000" stroke-width="2" stroke-linecap="butt"/><path d="M353.5,246.8125v-65h23v65z" fill="#a65f00" stroke="#000000" stroke-width="2" stroke-linecap="butt"/><path d="M-82.5,204.8125v-175h517v175z" fill="#a65f00" stroke="#000000" stroke-width="2" stroke-linecap="butt"/><path d="M376.3125,257.9375c0,9.29679 -10.96902,16.83333 -24.5,16.83333c-13.53098,0 -24.5,-7.53654 -24.5,-16.83333c0,-9.29679 10.96902,-16.83333 24.5,-16.83333c13.53098,0 24.5,7.53654 24.5,16.83333z" fill="none" stroke="#999999" stroke-width="8" stroke-linecap="butt"/><path d="M354.4246,300.92055l7.0258,111.78389" data-paper-data="{&quot;index&quot;:null}" fill="none" stroke="#000000" stroke-width="13" stroke-linecap="round"/><path d="M394.9375,273.3125l56,97" data-paper-data="{&quot;index&quot;:null}" fill="none" stroke="#000000" stroke-width="13" stroke-linecap="round"/><path d="M315.9375,265.3125l-56,97" fill="none" stroke="#000000" stroke-width="13" stroke-linecap="round"/><path d="M429.9375,279.3125c0,13.25483 -34.92179,24 -78,24c-43.07821,0 -78,-10.74517 -78,-24c0,-13.25483 34.92179,-24 78,-24c43.07821,0 78,10.74517 78,24z" fill="url(#color-1)" stroke="none" stroke-width="0" stroke-linecap="butt"/><path d="M429.31251,278.10416l-21.33333,3.66667l-27.66667,4l-30,1l-26.66667,-1.66667l-23.66667,-2.33333l-26,-5.33333" fill="none" stroke="#000000" stroke-width="0.5" stroke-linecap="round"/><path d="M162.97552,373.1121l-111.99338,-145.99138l19.04235,-14.60783l111.99338,145.99138z" fill="#b14d00" stroke="none" stroke-width="none" stroke-linecap="butt"/><path d="M-6.87171,357.60307c-0.79057,-2.37171 1.58114,-3.16228 1.58114,-3.16228l2.47624,-0.75492c2.9832,-3.07871 6.33978,-6.16781 10.21595,-8.11916c0.8694,-0.43768 1.97498,-0.3397 2.78405,-0.88084c1.08473,-0.72551 1.81957,-1.87115 2.72936,-2.80673c2.11991,-1.41889 4.75753,-2.04686 6.69634,-3.70465c0.65344,-0.55873 0.93203,-5.776 0.57894,-6.40529c-0.64503,-1.14957 -2.23481,-1.56763 -2.8658,-2.72496c-1.80937,-3.31864 -1.40142,-7.61124 -1.3245,-11.23175c0.0422,-1.98613 -0.37874,-4.05337 0.1903,-5.95671c0.33831,-1.1316 1.62682,-1.71547 2.37634,-2.62826c0.962,-1.17154 1.4133,-2.91121 2.75371,-3.61921c1.31431,-0.69422 3.02898,0.23013 4.45518,-0.18854c1.15319,-0.33853 1.84366,-1.67239 3,-2c1.38696,-0.39295 2.89773,0.13435 4.324,-0.07499c1.04292,-0.15308 1.95936,-0.83216 3,-1c1.11908,-0.18049 2.26809,-0.08376 3.40046,-0.03228c0.62807,0.02856 1.33688,0.61058 1.86648,0.27174c0.77742,-0.49739 0.77981,-1.71285 1.42199,-2.37571c1.7124,-1.76756 3.89069,-3.11623 5.31881,-5.12049c-0.1388,-2.94447 0.67829,-6.75168 0,-9.55108c-0.44514,-1.83714 -2.69432,-2.78764 -3.99402,-3.64433c-4.1667,-2.74648 -7.70386,-4.81361 -7.09452,-10.38558c0.59537,-5.44425 4.33328,-11.85101 7.51076,-16.23307c0.50397,-0.69503 1.4085,-1.05458 1.85238,-1.78944c0.58255,-0.96442 0.43245,-2.30921 1.14871,-3.17895c1.02514,-1.2448 3.01441,-1.53943 3.8652,-2.90932c0.85253,-1.3727 0.16522,-3.32425 0.90004,-4.76341c1.22005,-2.3895 3.64392,-3.96938 5.12406,-6.20711c0,0 1.38675,-2.08013 3.46688,-0.69338c2.08013,1.38675 0.69338,3.46688 0.69338,3.46688c-0.71559,1.06607 -1.31995,2.21591 -2.14677,3.19822c-0.80832,0.96034 -2.17114,1.47029 -2.72917,2.59467c-0.76358,1.53855 -0.15471,3.58342 -1.06112,5.0424c-0.90817,1.46181 -2.96248,1.86545 -4.05605,3.19427c-0.64998,0.78981 -0.43721,2.03781 -0.96888,2.91166c-0.53399,0.87766 -1.5422,1.38057 -2.14762,2.21056c-1.06273,1.45692 -2.807,4.77303 -3.74619,6.60269c-1.16776,2.27493 -2.24164,4.65674 -2.74305,7.16424c-0.11414,0.57079 -0.45572,1.22981 -0.17157,1.73783c1.63919,2.93069 6.25873,3.86155 8.45807,6.18894c4.19688,4.44123 2.78599,10.9012 2.62496,16.49223c-0.84999,1.32167 -1.49194,2.80318 -2.54998,3.965c-1.13375,1.24495 -2.73403,1.98622 -3.9399,3.16145c-1.0426,1.01612 -1.48225,2.69694 -2.76933,3.37734c-1.79759,0.95027 -4.7615,-0.10127 -6.73307,0.23946c-1.0387,0.17951 -1.95588,0.85533 -3,1c-1.21399,0.16821 -2.49839,-0.41455 -3.676,-0.07499c-1.1548,0.33298 -1.8417,1.67941 -3,2c-1.1404,0.31564 -2.46883,-0.68088 -3.54482,-0.18854c-0.81454,0.3727 -0.70212,1.66927 -1.24629,2.38079c-0.43042,0.56279 -1.44236,0.68681 -1.62366,1.37174c-0.34526,1.30433 0.15386,2.69453 0.1903,4.04329c0.06795,2.51492 -0.71107,6.46888 0.6755,8.76825c0.78029,1.29398 2.50306,1.90212 3.1342,3.27504c1.10988,2.41432 0.3644,9.6515 -1.42106,11.59471c-1.91093,2.07976 -4.95006,2.73406 -7.30366,4.29535c-1.09021,1.06442 -2.0018,2.34971 -3.27064,3.19327c-0.94521,0.6284 -2.19929,0.61446 -3.21595,1.11916c-3.70542,1.83947 -6.87016,5.04207 -9.78405,7.88084l-3.52376,1.24508c0,0 -2.37171,0.79057 -3.16228,-1.58114z" fill="#000000" stroke="none" stroke-width="0.5" stroke-linecap="butt"/><path d="M276.5,157.3125c0,8.56041 -31.34007,15.5 -70,15.5c-38.65993,0 -70,-6.93959 -70,-15.5c0,-8.56041 31.34007,-15.5 70,-15.5c38.65993,0 70,6.93959 70,15.5z" fill="#00a9ff" stroke="#000000" stroke-width="2" stroke-linecap="butt"/><path d="M139.5,155.3125c0,12.42641 -6.26801,22.5 -14,22.5c-7.73199,0 -14,-10.07359 -14,-22.5c0,-12.42641 6.26801,-22.5 14,-22.5c7.73199,0 14,10.07359 14,22.5z" fill="#00a9ff" stroke="#000000" stroke-width="2" stroke-linecap="butt"/><path d="M243.1,147.1625l18.4,10.4" fill="none" stroke="#000000" stroke-width="2" stroke-linecap="round"/><path d="M245.7,154.7625l13.6,-5.6" fill="none" stroke="#000000" stroke-width="2" stroke-linecap="round"/><path d="M246.5,157.5625l13.6,6.4" fill="none" stroke="#000000" stroke-width="2" stroke-linecap="round"/><path d="M250.1,163.3625l9.2,-6.8" fill="none" stroke="#000000" stroke-width="2" stroke-linecap="round"/></g></g></svg>