<svg version="1.1" xmlns="http://www.w3.org/2000/svg" xmlns:xlink="http://www.w3.org/1999/xlink" width="981.62162" height="929.84985" viewBox="0,0,981.62162,929.84985"><g transform="translate(250.81081,284.92492)"><g data-paper-data="{&quot;isPaintingLayer&quot;:true}" fill-rule="nonzero" stroke="none" stroke-linecap="butt" stroke-linejoin="miter" stroke-miterlimit="10" stroke-dasharray="" stroke-dashoffset="0" style="mix-blend-mode: normal"><path d="M-250.81081,644.92494v-929.84985h981.62162v929.84985z" fill="#00ff13" stroke-width="0"/><path d="M290.62237,26.08391c0,23.21918 -13.78103,42.04205 -30.78078,42.04205c-16.99975,0 -30.78078,-18.82286 -30.78078,-42.04204c0,-23.21918 13.78103,-42.04204 30.78078,-42.04204c16.99975,0 30.78078,18.82286 30.78078,42.04204z" fill="#ebff9a" stroke-width="0"/><path d="M236.07282,-4.44161c0,23.21918 -10.08367,42.04205 -22.52252,42.04205c-12.43885,0 -22.52252,-18.82286 -22.52252,-42.04204c0,-23.21918 10.08368,-42.04204 22.52253,-42.04204c12.43885,0 22.52252,18.82286 22.52252,42.04204z" fill="#ebff9a" stroke-width="0"/><path d="M330.1569,79.13196c0,30.68249 -13.78103,55.55556 -30.78078,55.55556c-16.99975,0 -30.78078,-24.87307 -30.78078,-55.55556c0,-30.68249 13.78103,-55.55555 30.78078,-55.55555c16.99975,0 30.78078,24.87306 30.78078,55.55555z" fill="#ebff9a" stroke-width="0"/><path d="M372.46668,112.99919c10.13932,28.95875 5.35206,56.98854 -10.69265,62.60626c-16.04471,5.61773 -37.27107,-13.3039 -47.41039,-42.26265c-10.13932,-28.95875 -5.35206,-56.98852 10.69265,-62.60625c16.04471,-5.61773 37.27107,13.30388 47.41039,42.26263z" fill="#ebff9a" stroke-width="0"/><path d="M433.22544,138.40918c-1.22525,30.65802 -15.98854,54.96093 -32.97474,54.28207c-16.98619,-0.67885 -29.76297,-26.0824 -28.53771,-56.74042c1.22525,-30.65802 15.98854,-54.96092 32.97473,-54.28206c16.98619,0.67885 29.76297,26.08239 28.53772,56.74041z" fill="#ebff9a" stroke-width="0"/><path d="M549.24556,167.4332c-2.59739,30.65802 -33.89393,54.96093 -69.90276,54.28207c-36.00883,-0.67885 -63.09417,-26.0824 -60.49677,-56.74042c2.59739,-30.65802 33.89392,-54.96092 69.90275,-54.28206c36.00883,0.67885 63.09418,26.08239 60.49678,56.74041z" fill="#ebff9a" stroke-width="0"/><path d="M534.96708,168.37865c-1.40721,5.67196 -2.04999,11.46533 -2.33233,17.30134c-1.85158,0.41926 -3.69845,0.86993 -5.53816,1.36976c-3.31428,0.90047 -6.62974,1.81639 -9.8734,2.94509c-2.81757,0.98045 -5.42648,2.68337 -8.36992,3.16931c-4.69958,0.77586 -10.31326,-0.70882 -14.65888,-2.33482c-4.17604,-1.56255 -12.53277,-4.69929 -14.39753,-9.40103c-1.43779,-3.62519 3.65164,-4.13555 -0.66735,-8.49201c-1.3286,-1.34014 -3.73551,-0.53903 -5.60326,-0.80854c-11.81674,-0.45798 -23.98524,-2.72135 -35.5793,-5.22285c-4.39159,-0.94751 -10.98168,-1.02285 -15.00136,-3.06673c-0.93643,-0.47615 -1.33744,-1.64741 -2.17703,-2.27884c-3.869,-2.90972 -7.65472,-5.38579 -11.38158,-8.59951c-5.01058,-4.32068 -9.49938,-8.97502 -14.35311,-13.46501c-3.12437,-2.89023 -6.57638,-5.33946 -9.59183,-8.36047c-4.65581,-4.6558 -9.75074,-9.16078 -14.03638,-14.15519c-3.21929,-3.75169 -3.31335,-5.93649 -8.31835,-7.73728c-1.27497,-0.45874 -2.72823,0.14378 -4.06413,-0.08286c-1.28384,-0.21781 -2.42162,-1.02131 -3.7061,-1.23537c-1.2058,-0.20095 -2.46808,0.24385 -3.66726,0.00659c-2.49377,-0.49341 -6.96151,-3.02198 -9.06213,-3.93268c-1.87867,-0.81447 -3.7287,-1.76487 -5.72125,-2.23659c-2.12162,-0.50228 -4.63638,0.28757 -6.48231,-0.87264c-0.80726,-0.50738 -1.30071,-1.39482 -1.96969,-2.07421c-3.8551,-3.91511 -6.93402,-7.69255 -7.87415,-13.31358c-0.40758,-2.43689 0.02125,-4.94157 0,-7.41222c-0.53742,-1.57197 -0.74087,-3.3015 -1.61227,-4.71592c-2.51516,-4.08247 -3.58281,-3.12606 -7.46959,-4.80598c-3.80234,-1.64343 -9.00441,-3.1253 -12.59494,-5.19757c-1.55687,-0.89856 -2.77267,-2.30805 -4.30507,-3.24773c-1.43912,-0.88248 -3.27064,-1.10877 -4.56558,-2.19181c-1.09617,-0.9168 -1.33573,-2.5774 -2.34558,-3.58851c-1.05147,-1.05278 -2.66732,-1.41915 -3.71304,-2.47765c-1.08705,-1.10033 -1.66472,-2.60877 -2.55888,-3.87087c-3.43656,-4.85067 -7.83803,-9.79863 -10.49505,-15.14847c-1.32298,-2.66378 -2.21143,-5.61306 -4.05134,-7.94989c-1.68723,-2.14292 -3.19587,-4.45027 -5.12445,-6.37884c-2.14745,-2.14744 -4.2314,-2.97701 -6.37884,-5.12445c-4.90211,-3.25281 -10.16804,-5.16461 -15.36211,-7.75745c-4.21955,-2.10636 -8.10304,-5.21647 -12.29753,-7.38395c-3.39415,-1.75391 -7.83306,-2.82787 -10.03829,-6.41124c-1.62545,-2.64126 -0.8228,-6.77524 -0.8228,-9.66601c0,-5.74463 0,-11.48925 0,-17.23387c0.62148,0.05327 1.2359,0.1222 1.84149,0.20972c3.3608,0.48569 6.5143,2.043 9.88295,2.47075c1.63403,0.20749 3.3055,-0.19156 4.94148,0c5.4066,0.63304 9.34908,4.21956 14.82443,4.94147c1.65462,0.21816 3.34679,-0.16505 5.0068,0.00726c4.50197,0.46731 8.97038,1.8681 13.47741,2.45738c5.5186,0.72153 11.07612,1.23194 16.61764,1.73696c28.9347,2.63263 57.76297,7.36932 86.77353,9.51066c1.37147,1.00422 2.71745,1.9374 3.66933,2.24971c1.42784,0.46847 3.00396,0.10414 4.50662,0.11853c3.01909,0.0289 5.90525,-0.58531 8.74259,-1.44894c3.19613,0.10509 6.39513,0.16784 9.59739,0.18202c5.07144,0.01583 9.81389,0.98516 14.83489,1.26103c1.77225,0.09737 3.56266,-0.23354 5.32473,-0.02042c2.77047,0.33508 5.2373,2.08133 8.00196,2.46138c1.8891,0.25969 3.82142,-0.14696 5.72056,0.02462c1.82397,0.16479 3.58371,0.79793 5.40598,0.9806c7.04708,0.70643 14.21511,-0.22233 21.26322,0.26044c3.31243,0.22689 6.56859,1.05095 9.88365,1.23542c0.53401,0.02972 1.06919,0.05397 1.60533,0.07354c2.2559,4.16298 4.30026,3.6379 8.44927,3.6379c1.5893,0 3.28938,0.38431 4.76326,-0.21028c0.84284,-0.34001 1.50056,-0.95472 2.10095,-1.65897c0.33187,0.30303 0.69993,0.5207 1.14869,0.55998c2.23402,0.19556 4.2415,-0.60169 5.78479,-1.95854c3.938,1.60829 8.11218,2.16627 12.58757,0.7614c1.29943,-0.01274 2.65116,0.3269 3.8983,-0.03823c0.53177,-0.15569 1.72738,-0.69539 3.11488,-1.39624c0.73421,0.56816 1.18021,1.49133 1.91127,2.07937c1.06243,0.85459 2.4344,1.71365 3.77796,2.65159c0.59675,0.68662 1.26298,1.33868 1.50633,2.18944c0.4378,1.53057 -0.43468,3.23222 -0.04463,4.77565c0.7799,3.08602 2.87426,5.72287 3.74237,8.78525c4.29497,15.15125 8.11522,30.23283 10.69489,45.72042c0.34894,10.32621 1.15176,21.4047 3.99217,31.3967c0.73742,2.59408 2.19926,5.01067 2.51864,7.68855c0.1992,1.67032 -0.22292,3.38119 0.01497,5.04645c0.18415,1.28911 1.01447,2.42279 1.23537,3.70611c0.39411,2.2896 -0.03567,4.64645 -0.03567,6.96972c0,7.61234 -0.09373,14.91645 -0.89272,22.45199c-0.48929,4.61464 -0.39861,9.24491 -0.5276,13.87247c-1.62353,5.81369 -3.51253,11.4874 -3.50087,17.69764zM443.58597,-21.82587c-0.55068,0 -1.10136,0 -1.65204,0c-0.56963,0.00002 -1.13839,-0.00415 -1.70634,-0.01205c-0.3424,-0.01878 -0.68418,-0.02904 -1.02441,-0.01819c-4.74274,-0.10201 -9.43456,-0.44348 -14.13237,-0.737c6.75266,-0.06568 13.51258,-0.0923 20.21902,0.15402c-0.55849,0.24437 -1.11564,0.49519 -1.70387,0.61321zM381.03638,-18.57828c0.4447,-0.13492 0.89304,-0.25364 1.3497,-0.33477c1.8472,-0.32819 3.77321,-0.10861 5.60474,-0.51525c1.75804,-0.39032 3.30002,-1.54503 5.07389,-1.85563c0.53171,-0.0931 1.06958,-0.10967 1.61028,-0.09299c-2.91118,0.91346 -5.78094,2.00646 -8.65843,3.00983c-1.66079,-0.05931 -3.32083,-0.13001 -4.98019,-0.21119zM541.18575,85.29002c0.68971,3.2406 2.00339,6.3524 2.42935,9.63809c0.04232,0.32644 0.08043,0.65465 0.11462,0.98445c-0.62203,-2.23282 -1.65715,-4.37334 -2.29908,-6.60769c-1.74494,-6.07349 -2.647,-12.59278 -3.16487,-19.07678c1.07044,5.00724 1.85422,10.05447 2.91998,15.06193zM496.50067,-12.61118c-0.3019,0.08598 -0.60418,0.16265 -0.90683,0.23094c0.01633,-0.13702 0.03326,-0.2759 0.05051,-0.41644c0.31957,0.00148 0.63843,0.01139 0.95634,0.03302c-0.03271,0.05149 -0.06602,0.10234 -0.10002,0.15248zM403.35477,-17.71648c2.55413,-0.24675 5.45126,0.04402 8.06703,0.14683c0.02172,0.23406 0.07262,0.45965 0.14906,0.6731c-2.78226,-0.16874 -5.4896,-0.5286 -8.21609,-0.81994zM459.50732,-15.64106c-3.91931,-0.30186 -7.85436,-0.48823 -11.79258,-0.65989c6.47937,0 12.95872,0 19.43808,0c-0.11393,0.29815 -0.14819,0.60939 -0.12808,0.92992c-2.95424,-0.52485 -6.61817,-0.20077 -7.51742,-0.27003zM501.7154,-11.38912c0.01023,0.00032 0.02049,0.00064 0.03075,0.00097c0.23188,0.27808 0.46983,0.54385 0.7138,0.79136c-0.52084,0.17559 -1.03945,0.31388 -1.55554,0.4177c0.23458,-0.43745 0.49057,-0.85447 0.81099,-1.21002zM490.02619,-23.45478c-0.0413,0.11502 -0.08104,0.22914 -0.11925,0.34206c-0.11614,0.00844 -0.23212,0.01678 -0.34769,0.02444c0.15397,-0.12447 0.30948,-0.24683 0.46693,-0.3665z" fill="#00ffce" stroke-width="0.5"/></g></g></svg>